<svg width="110" height="22" viewBox="0 0 110 22" fill="none" xmlns="http://www.w3.org/2000/svg"><path d="M32.407 19.22c-2.015 0-3.577-.514-4.687-1.54-1.095-1.042-1.679-2.516-1.752-4.422a59.437 59.437 0 01-.021-1.936c0-.91.007-1.57.021-1.98.073-1.878.665-3.337 1.774-4.378 1.11-1.056 2.665-1.584 4.665-1.584 1.3 0 2.43.227 3.394.682.964.44 1.708 1.048 2.234 1.826.54.777.825 1.65.854 2.618v.044c0 .117-.051.22-.153.308a.463.463 0 01-.307.11h-2.124c-.175 0-.307-.037-.394-.11-.088-.088-.16-.235-.22-.44-.218-.91-.598-1.548-1.138-1.914-.54-.382-1.256-.572-2.146-.572-2.088 0-3.176 1.173-3.263 3.52a54.71 54.71 0 00-.022 1.826c0 .821.007 1.444.022 1.87.087 2.346 1.175 3.52 3.263 3.52.876 0 1.584-.184 2.124-.55.555-.382.942-1.027 1.16-1.936.06-.206.132-.345.22-.418.087-.088.219-.132.394-.132h2.124c.131 0 .241.044.329.132a.36.36 0 01.131.33 4.74 4.74 0 01-.854 2.618c-.526.777-1.27 1.393-2.234 1.848-.963.44-2.095.66-3.394.66zM45.568 19c-.438 0-.723-.206-.854-.616L40.028 4.26a.67.67 0 01-.022-.198.449.449 0 01.46-.462h1.949a.67.67 0 01.46.154.833.833 0 01.24.33l3.657 11.264 3.68-11.264a.657.657 0 01.219-.33.671.671 0 01.46-.154h1.97a.42.42 0 01.307.132.418.418 0 01.153.33l-.044.198-4.664 14.124c-.146.41-.43.616-.854.616h-2.43zm10.836 0a.506.506 0 01-.372-.154.51.51 0 01-.154-.374V4.15c0-.162.044-.294.132-.396a.532.532 0 01.394-.154h5.869c1.767 0 3.154.418 4.16 1.254 1.008.836 1.512 2.053 1.512 3.652 0 1.584-.504 2.786-1.511 3.608-1.007.806-2.394 1.21-4.161 1.21h-3.22v5.148a.537.537 0 01-.152.396.583.583 0 01-.395.132h-2.102zm5.76-8.14c.846 0 1.489-.198 1.927-.594.452-.411.678-1.005.678-1.782 0-.763-.219-1.357-.657-1.782-.423-.426-1.072-.638-1.948-.638H59.01v4.796h3.154zM68.41 19a.449.449 0 01-.46-.462l.044-.198L73.25 4.15c.146-.367.409-.55.788-.55h2.409c.38 0 .642.183.788.55l5.256 14.19.044.198a.418.418 0 01-.153.33.42.42 0 01-.307.132h-1.949c-.306 0-.518-.14-.635-.418l-1.007-2.662H72l-1.007 2.662c-.117.278-.328.418-.635.418h-1.95zm4.358-5.632h4.95l-2.475-6.776-2.475 6.776zm16.919 5.852c-1.314 0-2.438-.198-3.373-.594-.934-.396-1.642-.917-2.124-1.562-.482-.646-.737-1.35-.767-2.112 0-.118.044-.22.132-.308a.414.414 0 01.328-.154h1.993a.66.66 0 01.394.11c.103.073.197.176.285.308.146.498.474.916.985 1.254.526.337 1.241.506 2.147.506 1.022 0 1.788-.169 2.3-.506.525-.352.788-.829.788-1.43 0-.396-.132-.726-.395-.99-.262-.264-.664-.492-1.204-.682-.526-.206-1.314-.448-2.365-.726-1.723-.411-2.986-.954-3.789-1.628-.803-.675-1.204-1.643-1.204-2.904 0-.851.233-1.606.7-2.266.468-.675 1.132-1.203 1.993-1.584.876-.382 1.89-.572 3.044-.572 1.212 0 2.256.212 3.132.638.89.425 1.562.96 2.015 1.606.467.63.715 1.261.744 1.892a.5.5 0 01-.131.33.445.445 0 01-.329.132h-2.08c-.321 0-.54-.132-.657-.396-.073-.47-.358-.858-.854-1.166-.497-.323-1.11-.484-1.84-.484-.803 0-1.438.154-1.905.462-.453.308-.679.755-.679 1.342 0 .396.117.726.35.99.234.264.6.498 1.096.704.496.19 1.219.41 2.168.66 1.299.293 2.328.623 3.087.99.774.366 1.344.828 1.709 1.386.365.557.547 1.268.547 2.134 0 .953-.263 1.782-.788 2.486-.511.689-1.241 1.217-2.19 1.584-.935.366-2.022.55-3.263.55zm14.072 0c-1.314 0-2.438-.198-3.373-.594-.934-.396-1.642-.917-2.124-1.562-.482-.646-.737-1.35-.766-2.112 0-.118.043-.22.13-.308a.414.414 0 01.33-.154h1.992c.161 0 .292.036.394.11.103.073.197.176.285.308.146.498.475.916.986 1.254.525.337 1.241.506 2.146.506 1.022 0 1.788-.169 2.299-.506.526-.352.788-.829.788-1.43 0-.396-.131-.726-.394-.99s-.664-.492-1.204-.682c-.526-.206-1.314-.448-2.365-.726-1.723-.411-2.986-.954-3.789-1.628-.803-.675-1.204-1.643-1.204-2.904 0-.851.233-1.606.7-2.266.468-.675 1.132-1.203 1.993-1.584.876-.382 1.891-.572 3.044-.572 1.212 0 2.256.212 3.132.638.89.425 1.562.96 2.015 1.606.467.63.715 1.261.744 1.892a.503.503 0 01-.131.33.445.445 0 01-.329.132h-2.08c-.321 0-.54-.132-.657-.396-.073-.47-.358-.858-.854-1.166-.497-.323-1.11-.484-1.84-.484-.803 0-1.438.154-1.905.462-.453.308-.679.755-.679 1.342 0 .396.117.726.351.99.233.264.598.498 1.095.704.496.19 1.219.41 2.168.66 1.299.293 2.328.623 3.087.99.774.366 1.344.828 1.708 1.386.365.557.548 1.268.548 2.134 0 .953-.263 1.782-.788 2.486-.511.689-1.241 1.217-2.19 1.584-.935.366-2.022.55-3.263.55z" fill="#17202F"/><path d="M9.367.182a1 1 0 00-.816 0L.592 3.736A1 1 0 000 4.649V10c0 5.464 3.705 10.58 8.721 11.939.156.042.32.042.476 0 5.016-1.36 8.72-6.475 8.72-11.939V4.649a1 1 0 00-.592-.913L9.367.182zM15.927 10c0 4.409-2.822 8.484-6.674 9.833a.89.89 0 01-.589 0C4.813 18.484 1.991 14.409 1.991 10V5.949a1 1 0 01.592-.913l5.968-2.664a1 1 0 01.815 0l5.968 2.664a1 1 0 01.593.913V10zM5.096 11.296a.996.996 0 00-1.41 1.406l2.573 2.586a1 1 0 001.418 0l6.556-6.586a.998.998 0 00-1.415-1.409L7.675 12.46a1 1 0 01-1.416.002l-1.163-1.165z" fill="#1CA2A3"/></svg>